<svg width="221" height="182" viewBox="0 0 221 182" fill="none" xmlns="http://www.w3.org/2000/svg">
<path d="M96.843 10.8205C99.3218 8.13863 101.439 5.57607 103.677 3.12392C106.608 -0.0875764 109.569 -0.0567088 112.694 3.04047C120.937 11.2126 121.011 11.2643 131.6 5.89202C135.502 3.91245 138.099 4.83534 139.462 8.76169C144.022 21.8878 145.745 19.4162 156.386 17.574C161.592 16.6729 162.921 17.8699 163.374 23.1548C164.38 34.9141 164.38 34.9141 175.988 35.8084C181.768 36.2537 183.216 38.3651 181.639 44.0818C181.374 45.0446 181.008 45.9794 180.726 46.938C178.426 54.75 179.122 56.0288 186.937 58.3819C195.258 60.8873 196.19 63.2143 191.734 70.3586C186.734 78.3751 186.849 79.2221 194.334 84.9995C198.061 87.876 201.335 90.7449 196.049 96.1187C203.359 96.1187 209.626 96.0387 215.888 96.1693C217.679 96.2066 220.569 95.4422 220.537 98.4135C220.508 101.052 217.825 100.321 216.165 100.322C145.841 100.35 75.5163 100.339 5.19204 100.28C3.55609 100.279 0.893522 101.113 0.792906 98.427C0.677389 95.343 3.57127 96.1869 5.34166 96.1203C9.64454 95.9584 13.9576 96.0676 18.3264 96.0676C17.2779 88.673 17.2779 88.673 23.3437 84.0386C29.781 79.1204 29.9106 78.2575 25.3124 71.5368C24.4666 70.3006 23.631 69.0485 22.9087 67.7386C20.8989 64.0936 21.867 61.4899 25.5768 59.5709C29.0617 57.7684 33.8248 57.7475 35.787 53.8286C37.7469 49.9143 34.8037 46.1482 34.1869 42.2938C33.5498 38.3131 35.2206 36.3213 39.1218 35.8292C51.2872 34.2948 51.3333 34.2807 52.8028 22.0878C53.2273 18.5656 55.0181 16.9744 58.4627 17.4178C60.5965 17.6926 62.7441 18.1079 64.7922 18.7553C70.6973 20.6217 72.1663 20.0601 74.5457 14.6598C79.7726 2.79698 79.766 2.80744 90.617 9.63395C92.4082 10.7608 94.1414 12.3857 96.843 10.8205ZM46.683 96.0787C55.9319 96.0787 65.1809 96.0787 75.3472 96.0787C71.1431 88.3745 68.0319 81.4399 67.2511 73.6983C66.7595 68.8236 68.4908 66.1483 73.4137 66.1167C97.5711 65.9616 121.73 66.0079 145.888 66.054C149.229 66.0604 151.837 67.5991 152.181 71.1951C152.415 73.6494 153.453 74.4633 155.763 75.0377C162.867 76.8036 164.585 81.0856 161.433 87.8227C159.961 90.9699 157.291 93.1936 154.934 96.0559C161.728 96.0559 167.884 95.9258 174.031 96.1043C177.759 96.2125 179.017 94.6224 178.99 91.0455C178.945 85.1839 178.472 79.3958 177.013 73.7203C167.583 37.0354 131.691 14.4303 94.2057 21.5405C62.9998 27.4596 37.8732 56.6272 37.2628 87.6413C37.0961 96.1102 37.0961 96.1102 46.683 96.0787ZM38.8586 63.5088C51.6463 33.9113 78.7544 14.6714 109.85 16.9654C157.632 20.4907 180.628 49.1215 183.406 95.8101C188.39 83.6747 179.72 51.2066 157.388 32.1145C130.442 9.07842 89.135 8.29587 59.994 31.096C36.1897 49.7207 28.2293 82.0232 33.0913 95.2012C33.3452 84.5717 34.6168 74.1403 38.8586 63.5088ZM145.658 94.2522C150.34 92.8119 153.618 89.6756 155.981 85.5241C157.005 83.7243 156.962 81.8903 154.823 80.9196C152.659 79.938 151.121 80.5493 150.178 82.9744C148.742 86.6627 147.015 90.2376 145.658 94.2522Z" fill="#5E4238"/>
<path d="M22.0002 132.095C83.9691 132.098 145.438 132.094 206.907 132.114C210.402 132.115 213.897 132.312 217.391 132.433C218.841 132.484 220.75 132.117 220.68 134.372C220.614 136.506 218.717 136.313 217.268 136.318C207.772 136.354 198.277 136.3 188.782 136.365C186.669 136.379 184.457 135.858 182.564 136.914C181.724 137.956 182.111 138.97 182.242 139.923C182.824 144.18 180.845 146.046 176.709 146.367C164.639 147.302 164.642 147.351 163.382 159.499C162.888 164.259 160.621 165.89 155.939 164.854C144.729 162.374 144.729 162.374 139.634 172.986C137.328 177.789 135.28 178.385 130.591 175.616C120.801 169.836 120.801 169.836 112.991 178.572C109.405 182.583 106.678 182.563 103.049 178.5C95.4664 170.011 95.4664 170.011 85.5893 175.659C80.7098 178.449 78.3632 177.663 76.3622 172.526C75.8798 171.288 75.5537 169.989 75.0863 168.744C72.7075 162.407 71.0356 161.545 64.5738 163.276C63.9306 163.448 63.2928 163.64 62.6511 163.818C55.1333 165.9 53.3803 164.682 52.835 156.967C52.7411 155.638 52.7218 154.304 52.6801 152.972C52.5387 148.46 50.1628 146.314 45.7009 146.356C44.8684 146.363 44.0353 146.331 43.2027 146.309C34.5553 146.081 33.9913 145.528 34.0509 137.074C31.6564 135.8 28.9607 136.422 26.3932 136.389C19.0646 136.294 11.7338 136.383 4.40475 136.312C2.88683 136.298 0.624487 136.876 0.690882 134.274C0.752962 131.841 2.97636 132.202 4.51022 132.172C10.1719 132.061 15.8367 132.107 22.0002 132.095ZM83.5001 136.342C74.1092 136.342 64.7183 136.342 55.3274 136.342C55.2462 136.859 55.165 137.375 55.0838 137.891C70.7122 155.041 90.2977 163.195 113.573 161.648C132.736 160.374 148.647 152.077 161.196 137.752C161.057 137.282 160.918 136.812 160.78 136.343C135.353 136.343 109.927 136.343 83.5001 136.342ZM153.529 150.073C114.623 175.864 79.7288 168.982 47.5445 136.305C53.742 150.191 80.9135 168.903 110.114 167.806C133.406 166.93 164.359 150.7 168.671 135.128C163.423 140.856 159.537 146.095 153.529 150.073Z" fill="#5E4238"/>
<path d="M108.594 38.3613C110.813 34.7775 109.292 31.2722 109.289 27.8413C116.136 29.4605 119.354 34.9093 117.521 41.3048C116.954 43.2819 115.938 44.9832 114.658 46.5204C110.168 51.9133 107.132 57.4413 113.529 64.0479C107.075 63.7041 102.443 56.9169 103.105 50.3462C103.561 45.8254 105.75 42.1764 108.594 38.3613Z" fill="#5E4238"/>
<path d="M97.7218 54.7334C94.3895 50.0511 94.3835 45.4207 97.0865 40.9466C98.8457 38.0348 100.049 35.1056 99.7196 31.6076C104.868 33.2409 106.158 38.8972 102.799 43.9026C98.8308 49.8147 98.8308 49.8147 100.388 55.6534C99.253 56.6461 98.6417 55.595 97.7218 54.7334Z" fill="#5E4238"/>
<path d="M116.853 58.2571C112.531 59.1547 113.639 56.031 114.225 54.262C115.087 51.6645 116.598 49.209 119.53 47.6107C121.383 52.0146 116.683 54.3602 116.853 58.2571Z" fill="#5E4238"/>
<path d="M31.1225 126.291C29.0569 126.291 27.2826 125.894 25.7996 125.1C24.3166 124.305 23.1779 123.184 22.3834 121.736C21.6066 120.289 21.2182 118.594 21.2182 116.652C21.2182 115.204 21.4389 113.889 21.8802 112.706C22.3393 111.523 22.9925 110.508 23.8399 109.661C24.705 108.813 25.7466 108.169 26.9648 107.727C28.2006 107.268 29.5865 107.039 31.1225 107.039C31.9346 107.039 32.7732 107.136 33.6383 107.33C34.521 107.507 35.2978 107.78 35.9687 108.151C36.4631 108.416 36.8073 108.751 37.0015 109.157C37.1957 109.563 37.2575 109.978 37.1869 110.402C37.1339 110.826 36.9839 111.205 36.7367 111.541C36.4895 111.876 36.1718 112.106 35.7834 112.229C35.3949 112.335 34.9712 112.273 34.5122 112.044C33.9826 111.797 33.4529 111.611 32.9233 111.488C32.4113 111.347 31.8728 111.276 31.3079 111.276C30.2133 111.276 29.2952 111.488 28.5537 111.912C27.8299 112.318 27.2826 112.918 26.9118 113.712C26.5411 114.507 26.3557 115.487 26.3557 116.652C26.3557 117.817 26.5411 118.806 26.9118 119.618C27.2826 120.412 27.8299 121.021 28.5537 121.445C29.2952 121.851 30.2133 122.054 31.3079 122.054C31.7669 122.054 32.2612 122.001 32.7909 121.895C33.3205 121.772 33.8413 121.586 34.3533 121.339C34.883 121.11 35.3508 121.048 35.7569 121.154C36.1806 121.26 36.516 121.472 36.7632 121.789C37.028 122.107 37.1957 122.478 37.2664 122.902C37.337 123.308 37.2752 123.714 37.081 124.12C36.9044 124.526 36.5866 124.852 36.1276 125.1C35.5097 125.47 34.7417 125.762 33.8237 125.974C32.9233 126.185 32.0229 126.291 31.1225 126.291ZM43.6465 126.291C42.6402 126.291 41.7486 126.106 40.9718 125.735C40.2126 125.364 39.6124 124.861 39.171 124.226C38.7473 123.572 38.5354 122.831 38.5354 122.001C38.5354 121.048 38.7826 120.298 39.2769 119.75C39.7713 119.203 40.5657 118.815 41.6603 118.585C42.7549 118.338 44.2114 118.214 46.0299 118.214H47.4864V120.439H46.0299C45.3413 120.439 44.7676 120.492 44.3085 120.598C43.8672 120.686 43.5405 120.836 43.3287 121.048C43.1168 121.242 43.0109 121.498 43.0109 121.816C43.0109 122.222 43.1521 122.557 43.4346 122.822C43.7348 123.087 44.1585 123.219 44.7058 123.219C45.1471 123.219 45.5355 123.122 45.871 122.928C46.2241 122.734 46.5065 122.469 46.7184 122.134C46.9303 121.781 47.0362 121.374 47.0362 120.915V117.844C47.0362 117.208 46.8685 116.758 46.533 116.493C46.2152 116.228 45.6591 116.096 44.8647 116.096C44.4409 116.096 43.9643 116.149 43.4346 116.255C42.905 116.343 42.3135 116.511 41.6603 116.758C41.1836 116.934 40.7776 116.961 40.4421 116.837C40.1067 116.714 39.8419 116.502 39.6477 116.202C39.4711 115.901 39.3829 115.575 39.3829 115.222C39.4005 114.869 39.5153 114.533 39.7271 114.215C39.9566 113.898 40.3009 113.65 40.7599 113.474C41.6074 113.156 42.3842 112.944 43.0904 112.838C43.8142 112.732 44.4763 112.679 45.0765 112.679C46.5242 112.679 47.7159 112.891 48.6516 113.315C49.605 113.721 50.3111 114.357 50.7702 115.222C51.2469 116.069 51.4852 117.164 51.4852 118.506V123.855C51.4852 124.632 51.2998 125.223 50.9291 125.629C50.5583 126.035 50.0198 126.238 49.3137 126.238C48.5898 126.238 48.0337 126.035 47.6453 125.629C47.2745 125.223 47.0892 124.632 47.0892 123.855V123.166L47.248 123.537C47.1598 124.102 46.9567 124.588 46.639 124.994C46.3212 125.4 45.9063 125.718 45.3943 125.947C44.8823 126.177 44.2997 126.291 43.6465 126.291ZM57.6386 126.238C56.8794 126.238 56.2968 126.035 55.8907 125.629C55.4847 125.223 55.2816 124.632 55.2816 123.855V116.44H54.5931C54.0282 116.44 53.5868 116.29 53.269 115.99C52.9689 115.69 52.8188 115.257 52.8188 114.692C52.8188 114.127 52.9689 113.703 53.269 113.421C53.5868 113.121 54.0282 112.971 54.5931 112.971H56.6322L55.2816 114.215V113.474C55.2816 111.514 55.7672 110.049 56.7382 109.078C57.7268 108.089 59.1922 107.498 61.1342 107.304L61.9022 107.224C62.4671 107.154 62.9173 107.224 63.2528 107.436C63.5882 107.63 63.8177 107.895 63.9413 108.23C64.0649 108.548 64.0914 108.884 64.0208 109.237C63.9678 109.59 63.8354 109.89 63.6235 110.137C63.4117 110.384 63.1292 110.526 62.7761 110.561L62.4053 110.587C61.505 110.658 60.8782 110.852 60.5251 111.17C60.172 111.488 59.9955 111.956 59.9955 112.574V113.447L59.4129 112.971H61.505C62.0876 112.971 62.5289 113.121 62.8291 113.421C63.1292 113.703 63.2793 114.127 63.2793 114.692C63.2793 115.257 63.1292 115.69 62.8291 115.99C62.5289 116.29 62.0876 116.44 61.505 116.44H59.9955V123.855C59.9955 125.444 59.2098 126.238 57.6386 126.238ZM71.6371 126.291C70.0481 126.291 68.6711 126.018 67.5058 125.47C66.3583 124.905 65.4755 124.111 64.8576 123.087C64.2397 122.063 63.9308 120.854 63.9308 119.459C63.9308 118.117 64.2221 116.943 64.8047 115.937C65.4049 114.913 66.217 114.118 67.241 113.553C68.2827 112.971 69.4655 112.679 70.7896 112.679C71.7606 112.679 72.6434 112.838 73.4378 113.156C74.2323 113.456 74.912 113.906 75.477 114.507C76.0419 115.089 76.4656 115.796 76.7481 116.625C77.0482 117.455 77.1983 118.382 77.1983 119.406C77.1983 119.759 77.1012 120.024 76.907 120.2C76.7128 120.359 76.4038 120.439 75.9801 120.439H67.8766V118.214H73.7556L73.3319 118.559C73.3319 117.905 73.2436 117.376 73.0671 116.97C72.8905 116.564 72.6257 116.255 72.2726 116.043C71.9372 115.831 71.5135 115.725 71.0015 115.725C70.4542 115.725 69.9775 115.857 69.5714 116.122C69.183 116.369 68.8829 116.74 68.6711 117.234C68.4592 117.729 68.3533 118.347 68.3533 119.088V119.327C68.3533 120.58 68.6269 121.48 69.1742 122.028C69.7392 122.557 70.6043 122.822 71.7695 122.822C72.1579 122.822 72.5992 122.778 73.0936 122.69C73.6056 122.584 74.0911 122.443 74.5501 122.266C75.0091 122.089 75.4063 122.063 75.7418 122.187C76.0772 122.293 76.3332 122.487 76.5098 122.769C76.704 123.034 76.8099 123.343 76.8276 123.696C76.8452 124.031 76.7658 124.367 76.5892 124.702C76.4127 125.02 76.1214 125.267 75.7153 125.444C75.0974 125.726 74.4353 125.938 73.7291 126.079C73.0406 126.221 72.3432 126.291 71.6371 126.291ZM85.9581 126.291C84.634 126.291 83.5394 126.088 82.6743 125.682C81.8269 125.276 81.1913 124.667 80.7676 123.855C80.3439 123.025 80.132 121.992 80.132 120.757V116.44H79.2316C78.6667 116.44 78.2253 116.29 77.9075 115.99C77.6074 115.69 77.4573 115.257 77.4573 114.692C77.4573 114.127 77.6074 113.703 77.9075 113.421C78.2253 113.121 78.6667 112.971 79.2316 112.971H80.132V111.329C80.132 110.552 80.3351 109.961 80.7411 109.555C81.1472 109.149 81.7298 108.946 82.4889 108.946C83.2481 108.946 83.8307 109.149 84.2368 109.555C84.6428 109.961 84.8459 110.552 84.8459 111.329V112.971H87.0174C87.6 112.971 88.0414 113.121 88.3415 113.421C88.6593 113.703 88.8182 114.127 88.8182 114.692C88.8182 115.257 88.6593 115.69 88.3415 115.99C88.0414 116.29 87.6 116.44 87.0174 116.44H84.8459V120.598C84.8459 121.251 84.9959 121.736 85.296 122.054C85.6138 122.354 86.1082 122.504 86.779 122.504C87.0262 122.504 87.2646 122.478 87.4941 122.425C87.7236 122.372 87.9354 122.345 88.1296 122.345C88.4121 122.328 88.6416 122.416 88.8182 122.61C88.9947 122.787 89.083 123.202 89.083 123.855C89.083 124.385 89.0035 124.835 88.8447 125.206C88.6858 125.559 88.4033 125.815 87.9972 125.974C87.7501 126.062 87.4146 126.132 86.9909 126.185C86.5672 126.256 86.2229 126.291 85.9581 126.291ZM97.3692 126.291C95.7803 126.291 94.4032 126.018 93.238 125.47C92.0904 124.905 91.2077 124.111 90.5898 123.087C89.9719 122.063 89.6629 120.854 89.6629 119.459C89.6629 118.117 89.9542 116.943 90.5368 115.937C91.1371 114.913 91.9492 114.118 92.9732 113.553C94.0148 112.971 95.1977 112.679 96.5218 112.679C97.4928 112.679 98.3755 112.838 99.17 113.156C99.9645 113.456 100.644 113.906 101.209 114.507C101.774 115.089 102.198 115.796 102.48 116.625C102.78 117.455 102.93 118.382 102.93 119.406C102.93 119.759 102.833 120.024 102.639 120.2C102.445 120.359 102.136 120.439 101.712 120.439H93.6087V118.214H99.4878L99.0641 118.559C99.0641 117.905 98.9758 117.376 98.7992 116.97C98.6227 116.564 98.3579 116.255 98.0048 116.043C97.6693 115.831 97.2456 115.725 96.7336 115.725C96.1863 115.725 95.7097 115.857 95.3036 116.122C94.9152 116.369 94.6151 116.74 94.4032 117.234C94.1914 117.729 94.0854 118.347 94.0854 119.088V119.327C94.0854 120.58 94.3591 121.48 94.9064 122.028C95.4713 122.557 96.3364 122.822 97.5016 122.822C97.89 122.822 98.3314 122.778 98.8257 122.69C99.3377 122.584 99.8232 122.443 100.282 122.266C100.741 122.089 101.139 122.063 101.474 122.187C101.809 122.293 102.065 122.487 102.242 122.769C102.436 123.034 102.542 123.343 102.56 123.696C102.577 124.031 102.498 124.367 102.321 124.702C102.145 125.02 101.854 125.267 101.447 125.444C100.83 125.726 100.167 125.938 99.4613 126.079C98.7728 126.221 98.0754 126.291 97.3692 126.291ZM107.371 126.238C106.594 126.238 105.994 126.035 105.57 125.629C105.164 125.223 104.961 124.632 104.961 123.855V115.089C104.961 114.33 105.156 113.748 105.544 113.342C105.95 112.935 106.524 112.732 107.265 112.732C108.007 112.732 108.572 112.935 108.96 113.342C109.349 113.748 109.543 114.33 109.543 115.089V116.175H109.278C109.454 115.116 109.905 114.277 110.628 113.659C111.37 113.041 112.288 112.715 113.383 112.679C113.895 112.662 114.274 112.794 114.521 113.077C114.786 113.342 114.927 113.845 114.945 114.586C114.945 115.222 114.813 115.725 114.548 116.096C114.283 116.466 113.78 116.687 113.038 116.758L112.429 116.811C111.494 116.899 110.814 117.164 110.39 117.605C109.966 118.029 109.755 118.664 109.755 119.512V123.855C109.755 124.632 109.552 125.223 109.145 125.629C108.739 126.035 108.148 126.238 107.371 126.238ZM118.774 126.238C118.033 126.238 117.459 126.018 117.053 125.576C116.647 125.135 116.444 124.499 116.444 123.67V115.301C116.444 114.471 116.647 113.836 117.053 113.395C117.459 112.953 118.033 112.732 118.774 112.732C119.533 112.732 120.116 112.953 120.522 113.395C120.946 113.836 121.158 114.471 121.158 115.301V123.67C121.158 124.499 120.955 125.135 120.549 125.576C120.142 126.018 119.551 126.238 118.774 126.238ZM118.774 110.852C117.944 110.852 117.3 110.658 116.841 110.27C116.4 109.881 116.179 109.316 116.179 108.575C116.179 107.851 116.4 107.295 116.841 106.906C117.3 106.518 117.944 106.324 118.774 106.324C119.639 106.324 120.293 106.518 120.734 106.906C121.175 107.295 121.396 107.851 121.396 108.575C121.396 109.316 121.175 109.881 120.734 110.27C120.293 110.658 119.639 110.852 118.774 110.852ZM128.42 126.291C127.414 126.291 126.522 126.106 125.746 125.735C124.986 125.364 124.386 124.861 123.945 124.226C123.521 123.572 123.309 122.831 123.309 122.001C123.309 121.048 123.556 120.298 124.051 119.75C124.545 119.203 125.34 118.815 126.434 118.585C127.529 118.338 128.985 118.214 130.804 118.214H132.26V120.439H130.804C130.115 120.439 129.541 120.492 129.082 120.598C128.641 120.686 128.314 120.836 128.103 121.048C127.891 121.242 127.785 121.498 127.785 121.816C127.785 122.222 127.926 122.557 128.208 122.822C128.509 123.087 128.932 123.219 129.48 123.219C129.921 123.219 130.309 123.122 130.645 122.928C130.998 122.734 131.28 122.469 131.492 122.134C131.704 121.781 131.81 121.374 131.81 120.915V117.844C131.81 117.208 131.642 116.758 131.307 116.493C130.989 116.228 130.433 116.096 129.639 116.096C129.215 116.096 128.738 116.149 128.208 116.255C127.679 116.343 127.087 116.511 126.434 116.758C125.958 116.934 125.551 116.961 125.216 116.837C124.881 116.714 124.616 116.502 124.422 116.202C124.245 115.901 124.157 115.575 124.157 115.222C124.174 114.869 124.289 114.533 124.501 114.215C124.73 113.898 125.075 113.65 125.534 113.474C126.381 113.156 127.158 112.944 127.864 112.838C128.588 112.732 129.25 112.679 129.85 112.679C131.298 112.679 132.49 112.891 133.425 113.315C134.379 113.721 135.085 114.357 135.544 115.222C136.021 116.069 136.259 117.164 136.259 118.506V123.855C136.259 124.632 136.074 125.223 135.703 125.629C135.332 126.035 134.794 126.238 134.088 126.238C133.364 126.238 132.808 126.035 132.419 125.629C132.048 125.223 131.863 124.632 131.863 123.855V123.166L132.022 123.537C131.934 124.102 131.731 124.588 131.413 124.994C131.095 125.4 130.68 125.718 130.168 125.947C129.656 126.177 129.074 126.291 128.42 126.291ZM149.275 126.238C148.498 126.238 147.898 126.026 147.474 125.603C147.05 125.161 146.838 124.543 146.838 123.749V109.581C146.838 108.769 147.05 108.151 147.474 107.727C147.898 107.304 148.498 107.092 149.275 107.092C150.069 107.092 150.67 107.304 151.076 107.727C151.499 108.151 151.711 108.769 151.711 109.581V123.749C151.711 124.543 151.508 125.161 151.102 125.603C150.696 126.026 150.087 126.238 149.275 126.238ZM164.092 126.291C162.203 126.291 160.544 125.894 159.114 125.1C157.684 124.287 156.571 123.158 155.777 121.71C155 120.262 154.612 118.576 154.612 116.652C154.612 115.204 154.832 113.889 155.274 112.706C155.733 111.523 156.377 110.508 157.207 109.661C158.054 108.813 159.061 108.169 160.226 107.727C161.391 107.268 162.68 107.039 164.092 107.039C165.981 107.039 167.632 107.436 169.044 108.23C170.474 109.025 171.587 110.146 172.381 111.594C173.176 113.024 173.573 114.71 173.573 116.652C173.573 118.099 173.343 119.415 172.884 120.598C172.443 121.781 171.798 122.804 170.951 123.67C170.121 124.517 169.124 125.17 167.959 125.629C166.793 126.071 165.505 126.291 164.092 126.291ZM164.092 122.213C165.028 122.213 165.822 121.992 166.476 121.551C167.129 121.11 167.632 120.474 167.985 119.644C168.338 118.815 168.515 117.817 168.515 116.652C168.515 114.904 168.126 113.545 167.349 112.574C166.573 111.603 165.487 111.117 164.092 111.117C163.174 111.117 162.38 111.338 161.709 111.779C161.056 112.203 160.552 112.83 160.199 113.659C159.846 114.471 159.67 115.469 159.67 116.652C159.67 118.4 160.058 119.768 160.835 120.757C161.612 121.728 162.697 122.213 164.092 122.213ZM183.388 126.291C182.682 126.291 181.94 126.238 181.164 126.132C180.404 126.044 179.681 125.903 178.992 125.709C178.304 125.514 177.686 125.285 177.138 125.02C176.662 124.791 176.326 124.491 176.132 124.12C175.938 123.731 175.867 123.325 175.92 122.902C175.973 122.478 176.123 122.107 176.37 121.789C176.618 121.454 176.944 121.233 177.35 121.127C177.756 121.004 178.215 121.057 178.727 121.286C179.398 121.604 180.157 121.851 181.005 122.028C181.852 122.204 182.647 122.293 183.388 122.293C184.553 122.293 185.365 122.142 185.825 121.842C186.301 121.525 186.54 121.136 186.54 120.677C186.54 120.271 186.372 119.944 186.036 119.697C185.719 119.45 185.145 119.238 184.315 119.062L181.217 118.4C179.522 118.047 178.259 117.429 177.43 116.546C176.6 115.663 176.185 114.524 176.185 113.13C176.185 112.212 176.37 111.382 176.741 110.64C177.13 109.881 177.668 109.237 178.357 108.707C179.063 108.178 179.893 107.771 180.846 107.489C181.817 107.189 182.894 107.039 184.077 107.039C184.995 107.039 185.922 107.145 186.857 107.357C187.811 107.551 188.632 107.851 189.32 108.257C189.726 108.469 190.018 108.76 190.194 109.131C190.371 109.502 190.441 109.89 190.406 110.296C190.371 110.684 190.229 111.029 189.982 111.329C189.753 111.629 189.435 111.832 189.029 111.938C188.64 112.026 188.173 111.956 187.625 111.726C187.113 111.497 186.531 111.329 185.877 111.223C185.242 111.099 184.624 111.038 184.024 111.038C183.37 111.038 182.814 111.117 182.355 111.276C181.896 111.417 181.543 111.629 181.296 111.912C181.067 112.194 180.952 112.521 180.952 112.891C180.952 113.262 181.102 113.58 181.402 113.845C181.72 114.092 182.294 114.304 183.123 114.48L186.195 115.142C187.908 115.513 189.188 116.122 190.035 116.97C190.883 117.817 191.306 118.92 191.306 120.28C191.306 121.198 191.121 122.028 190.75 122.769C190.379 123.511 189.85 124.146 189.161 124.676C188.473 125.188 187.643 125.585 186.672 125.868C185.701 126.15 184.606 126.291 183.388 126.291Z" fill="#5E4238"/>
</svg>
